# xmcd CD database file
#
# Track frame offsets:
#	150
#	24927
#	59706
#	85527
#	109547
#	135134
#	161871
#	186039
#	207885
#	234112
#	252541
#	273102
#
# Disc length: 3914 seconds
#
# Revision: 0
# Processed by: cddbd v1.5.1PL0 Copyright (c) Steve Scherf et al.
# Submitted via: CDex 1.51
#
DISCID=920f480c
DTITLE=Rickey Woodard - Picture This
DYEAR=2004
DGENRE=Jazz
TTITLE0=Stone Broke
TTITLE1=It Could Happen To You
TTITLE2=The Coconut Mambo
TTITLE3=Tangerine
TTITLE4=Sneak-A-Peek
TTITLE5=Easy Living
TTITLE6=Deep Bop Boom Bam
TTITLE7=EKS
TTITLE8=My Shining Hour
TTITLE9=My Ideal
TTITLE10=Greasin' Easy
TTITLE11=Picture This
EXTD=YEAR: 2004
EXTT0=
EXTT1=
EXTT2=
EXTT3=
EXTT4=
EXTT5=
EXTT6=
EXTT7=
EXTT8=
EXTT9=
EXTT10=
EXTT11=
PLAYORDER=
